<svg xmlns="http://www.w3.org/2000/svg" xmlns:xlink="http://www.w3.org/1999/xlink" width="163.971" height="147.75" viewBox="0 0 163.971 147.75"><defs><style>.a{fill:rgba(0,102,153,0.1);}.b{fill:#f1f0ed;stroke:#464646;stroke-linecap:square;stroke-linejoin:round;stroke-width:3px;}.c{fill:#464646;}.d{fill:#fff;}.e,.l{fill:#736e50;}.e,.j{opacity:0.25;}.f{fill:#36384e;}.g{opacity:0.5;}.h{fill:#ea4c89;}.i{opacity:0.6;}.j{fill:none;stroke:#ea4c89;}.k{fill:#dc143c;}.m{fill:#aa5d00;}.n{fill:#008040;}.o{fill:#913d88;}.p{filter:url(#c);}.q{filter:url(#a);}</style><filter id="a" x="42.683" y="26.174" width="65.935" height="82.717" filterUnits="userSpaceOnUse"><feOffset dy="1" input="SourceAlpha"/><feGaussianBlur stdDeviation="0.5" result="b"/><feFlood flood-opacity="0.051"/><feComposite operator="in" in2="b"/><feComposite in="SourceGraphic"/></filter><filter id="c" x="42.683" y="107.989" width="65.935" height="36.565" filterUnits="userSpaceOnUse"><feOffset dy="1" input="SourceAlpha"/><feGaussianBlur stdDeviation="0.5" result="d"/><feFlood flood-opacity="0.051"/><feComposite operator="in" in2="d"/><feComposite in="SourceGraphic"/></filter></defs><g transform="translate(-68.246 -3.924)"><path class="a" d="M214.916-189.706c2.231-33.746-62.813-94.2-109.379-78.84S37.608-193.2,59.829-161.235,212.685-155.96,214.916-189.706Z" transform="translate(17.246 287.815)"/><g transform="translate(106.137 5.424)"><rect class="b" width="77.619" height="144.75" rx="8" transform="translate(0 0)"/></g><g transform="translate(133.408 9.619)"><rect class="c" width="23.076" height="4.196" rx="2.098" transform="translate(0 0)"/></g><g transform="translate(112.43 30.598)"><g transform="translate(0 0)"><g class="q" transform="matrix(1, 0, 0, 1, -44.18, -26.67)"><rect width="62.935" height="79.717" transform="translate(44.18 26.67)"/></g><rect class="d" width="62.935" height="79.717" transform="translate(0 0)"/></g><rect class="e" width="35.663" height="10.489" rx="5.245" transform="translate(6.293 6.293)"/><g transform="translate(52.247 7.822)"><path class="f" d="M10.339,4A2.366,2.366,0,0,0,8.372,5.093,2.366,2.366,0,0,0,6.4,4,2.426,2.426,0,0,0,4,6.4c0,2.4,4.372,5.956,4.372,5.956S12.743,8.809,12.743,6.4A2.426,2.426,0,0,0,10.339,4Z" transform="translate(-4 -4)"/></g><rect class="e" width="50.348" height="6.293" rx="3.147" transform="translate(8.391 65.032)"/><g class="g" transform="translate(48.815 3.798)"><path class="h" d="M7.8,0a7.893,7.893,0,0,1,7.8,7.978,7.893,7.893,0,0,1-7.8,7.978A7.893,7.893,0,0,1,0,7.978,7.893,7.893,0,0,1,7.8,0Z" transform="translate(0 0)"/></g><g class="i" transform="translate(47.449 2.432)"><path class="j" d="M9.67.5A9.057,9.057,0,0,0,3.186,3.237a9.471,9.471,0,0,0,0,13.215,9.05,9.05,0,0,0,12.969,0,9.471,9.471,0,0,0,0-13.215A9.057,9.057,0,0,0,9.67.5Z" transform="translate(-0.5 -0.5)"/></g><rect class="k" width="14.685" height="8.391" rx="4.196" transform="translate(14.685 23.076)"/><rect class="l" width="14.685" height="6.293" rx="3.147" transform="translate(14.685 37.761)"/><rect class="m" width="14.685" height="6.293" rx="3.147" transform="translate(14.685 48.25)"/><rect class="n" width="14.685" height="6.293" rx="3.147" transform="translate(39.859 37.761)"/><rect class="o" width="14.685" height="8.391" rx="4.196" transform="translate(39.859 23.076)"/><g transform="translate(8.783 25.459)"><path class="c" d="M8.048,6.085,5.415,8.717l-.934-.934a.28.28,0,0,0-.4.4L5.217,9.312a.274.274,0,0,0,.4,0l2.83-2.83a.28.28,0,0,0-.4-.4Z" transform="translate(-4 -6)"/></g><g transform="translate(8.783 38.376)"><path class="c" d="M8.048,6.085,5.415,8.717l-.934-.934a.28.28,0,0,0-.4.4L5.217,9.312a.274.274,0,0,0,.4,0l2.83-2.83a.28.28,0,0,0-.4-.4Z" transform="translate(-4 -6)"/></g><g transform="translate(8.783 50.377)"><path class="c" d="M8.048,6.085,5.415,8.717l-.934-.934a.28.28,0,0,0-.4.4L5.217,9.312a.274.274,0,0,0,.4,0l2.83-2.83a.28.28,0,0,0-.4-.4Z" transform="translate(-4 -6)"/></g><g transform="translate(33.109 38.376)"><path class="c" d="M8.048,6.085,5.415,8.717l-.934-.934a.28.28,0,0,0-.4.4L5.217,9.312a.274.274,0,0,0,.4,0l2.83-2.83a.28.28,0,0,0-.4-.4Z" transform="translate(-4 -6)"/></g><g transform="translate(33.109 25.459)"><path class="c" d="M8.048,6.085,5.415,8.717l-.934-.934a.28.28,0,0,0-.4.4L5.217,9.312a.274.274,0,0,0,.4,0l2.83-2.83a.28.28,0,0,0-.4-.4Z" transform="translate(-4 -6)"/></g></g><g transform="translate(112.43 112.412)"><g transform="translate(0 0)"><g class="p" transform="matrix(1, 0, 0, 1, -44.18, -108.49)"><path d="M0,0H62.935a0,0,0,0,1,0,0V28.565a5,5,0,0,1-5,5H5a5,5,0,0,1-5-5V0A0,0,0,0,1,0,0Z" transform="translate(44.18 108.49)"/></g><path class="d" d="M0,0H62.935a0,0,0,0,1,0,0V28.565a5,5,0,0,1-5,5H5a5,5,0,0,1-5-5V0A0,0,0,0,1,0,0Z"/></g><rect class="e" width="41.956" height="12.587" rx="6.293" transform="translate(6.293 6.293)"/><g transform="translate(52.817 9.29)"><path class="f" d="M9.169,4a1.93,1.93,0,0,0-1.6.891A1.93,1.93,0,0,0,5.961,4,1.978,1.978,0,0,0,4,5.961c0,1.961,3.565,4.857,3.565,4.857s3.565-2.9,3.565-4.857A1.978,1.978,0,0,0,9.169,4Z" transform="translate(-4 -4)"/></g><rect class="k" width="14.685" height="6.293" rx="3.147" transform="translate(14.685 22.209)"/><rect class="o" width="16.783" height="6.293" rx="3.147" transform="translate(39.859 22.209)"/><g transform="translate(7.649 24.633)"><path class="c" d="M8.044,6.085l-2.63,2.63-.933-.933a.28.28,0,0,0-.4.4L5.216,9.309a.273.273,0,0,0,.4,0L8.44,6.481a.28.28,0,0,0-.4-.4Z" transform="translate(-4 -6)"/></g><g transform="translate(33.798 24.633)"><path class="c" d="M8.044,6.085l-2.63,2.63-.933-.933a.28.28,0,0,0-.4.4L5.216,9.309a.273.273,0,0,0,.4,0L8.44,6.481a.28.28,0,0,0-.4-.4Z" transform="translate(-4 -6)"/></g></g></g></svg>