<svg height="24" viewBox="0 0 24 24" width="24" xmlns="http://www.w3.org/2000/svg"><path d="m22.6736842 0h-21.34736841c-.73221053 0-1.32631579.59368421-1.32631579 1.32631579v21.34736841c0 .7326316.59410526 1.3263158 1.32631579 1.3263158h11.49515791v-9.2631579h-3.13726317v-3.6505263h3.12042107v-2.66526317c0-3.10315789 1.8905263-4.79157895 4.656421-4.79157895.9402106.00252632 1.8787369.056 2.8130527.16v3.23789474h-1.911579c-1.5035789 0-1.7941052.71157895-1.7941052 1.76v2.31578948h3.600421l-.4677895 3.6336842h-3.1326315v9.2631579h6.1052631c.7326316 0 1.3263158-.5936842 1.3263158-1.3263158v-21.34736841c0-.73263158-.5936842-1.32631579-1.3263158-1.32631579" fill="#fff" fill-rule="evenodd"/></svg>