<?xml version="1.0" encoding="UTF-8"?>
<svg width="24px" height="24px" viewBox="0 0 24 24" version="1.1" xmlns="http://www.w3.org/2000/svg" xmlns:xlink="http://www.w3.org/1999/xlink">
    <!-- Generator: Sketch 53.2 (72643) - https://sketchapp.com -->
    <title>Facebook</title>
    <desc>Created with Sketch.</desc>
    <g id="Facebook" stroke="none" stroke-width="1" fill="none" fill-rule="evenodd">
        <path d="M22.6736842,0 L1.32631579,0 C0.594105263,0 0,0.593684211 0,1.32631579 L0,22.6736842 C0,23.4063158 0.594105263,24 1.32631579,24 L12.8214737,24 L12.8214737,14.7368421 L9.68421053,14.7368421 L9.68421053,11.0863158 L12.8046316,11.0863158 L12.8046316,8.42105263 C12.8046316,5.31789474 14.6951579,3.62947368 17.4610526,3.62947368 C18.4012632,3.632 19.3397895,3.68547368 20.2741053,3.78947368 L20.2741053,7.02736842 L18.3625263,7.02736842 C16.8589474,7.02736842 16.5684211,7.73894737 16.5684211,8.78736842 L16.5684211,11.1031579 L20.1688421,11.1031579 L19.7010526,14.7368421 L16.5684211,14.7368421 L16.5684211,24 L22.6736842,24 C23.4063158,24 24,23.4063158 24,22.6736842 L24,1.32631579 C24,0.593684211 23.4063158,0 22.6736842,0" id="Fill-1" fill="#005585"></path>
    </g>
</svg>