<svg viewBox="0 0 735.55 116.13" xmlns="http://www.w3.org/2000/svg"><g fill="#fff"><path d="m253.14 27.4c-8.69 0-16 3.67-20.46 9.54v-2.88a6.71 6.71 0 0 0 -6.68-6.66 6.71 6.71 0 0 0 -6.7 6.66v75.29a6.83 6.83 0 0 0 6.81 6.78 6.82 6.82 0 0 0 6.81-6.78v-26.5a27.28 27.28 0 0 0 20.49 8.83c15.21 0 30-11.29 30-32.26.03-21.35-15.79-32.02-30.27-32.02zm-1.47 51.89c-9.32 0-18.77-6.75-18.77-20.12 0-13.13 9.32-19.63 18.65-19.63s18.4 6.38 18.4 19.75-8.95 20-18.28 20z"/><path d="m175.27 91.68c8.7 0 16.05-3.67 20.47-9.54v2.86a6.71 6.71 0 0 0 6.69 6.67 6.71 6.71 0 0 0 6.7-6.67v-75.28a6.82 6.82 0 0 0 -6.86-6.72 6.82 6.82 0 0 0 -6.81 6.77v26.46a27.24 27.24 0 0 0 -20.46-8.83c-15.21 0-30.06 11.28-30.06 32.26.01 21.34 15.84 32.02 30.33 32.02zm1.48-51.89c9.32 0 18.76 6.74 18.76 20.12 0 13.12-9.32 19.62-18.64 19.62s-18.4-6.38-18.4-19.75 8.93-20 18.26-20z"/><path d="m130.18 0a9.69 9.69 0 0 0 0 19.38 9.69 9.69 0 0 0 0-19.38z"/><path d="m130.18 27.4a6.82 6.82 0 0 0 -6.81 6.78v51a6.82 6.82 0 0 0 6.8 6.55 6.82 6.82 0 0 0 6.83-6.55v-.18-50.82a6.82 6.82 0 0 0 -6.82-6.78z"/><path d="m430.8 59.53c0 18.26-13.39 32.14-32.14 32.14s-32-13.88-32-32.14 13.39-32.14 32-32.14 32.14 13.9 32.14 32.14zm-50.89-.12c0 11.32 7.79 19.6 18.75 19.6s18.87-8.28 18.87-19.6-7.79-19.6-18.87-19.6-18.75 8.28-18.75 19.6z"/><path d="m557.27 50.29c0-15.34-10.83-22.89-22.15-22.89-7.43 0-15 3.05-19.48 10.35v-3.75a6.64 6.64 0 0 0 -13.27 0v51a6.76 6.76 0 0 0 13.51 0v-26.44c0-11.81 7.06-18.26 15.46-18.26 6.94 0 12.42 4.38 12.42 14.73v29.97a6.76 6.76 0 0 0 13.51 0z"/><path d="m492 50.29c0-15.29-10.8-22.89-22.12-22.89-7.43 0-15 3.05-19.48 10.35v-3.75a6.64 6.64 0 0 0 -13.27 0v51a6.76 6.76 0 0 0 13.51 0v-26.44c0-11.81 7.06-18.26 15.46-18.26 6.94 0 12.42 4.38 12.42 14.73v29.97a6.76 6.76 0 0 0 13.48 0z"/><path d="m618.36 83.5a6 6 0 0 0 -7.56-9.37l-1.17.89a21.21 21.21 0 0 1 -12.72 4c-7.91 0-15.7-3.77-17.77-13.39h44.15a46.52 46.52 0 0 0 .49-7.67c0-20.7-13-30.56-28-30.56-16 0-31.29 11-31.29 31.9s16 32.38 31.9 32.38a32.6 32.6 0 0 0 21.97-8.18zm-39.61-29.08c1.1-10 8.53-15 16.44-15s14.85 4.87 15.1 15z"/><path d="m727.86 79.34a13.75 13.75 0 0 1 -3.61.52c-4.75 0-8.64-2.55-8.64-9.37v-29.1h11a6.21 6.21 0 0 0 0-12.42h-11v-10.68a6.7 6.7 0 0 0 -13.34 0v10.71h-7.09a6.21 6.21 0 0 0 0 12.41h7.09v29.82c0 14.12 9.74 20.45 20.21 20.45a28.85 28.85 0 0 0 9-1.51 5.48 5.48 0 0 0 3.88-6.71q-.05-.2-.12-.39c-.92-3-3.86-4.71-7.38-3.73z"/><path d="m361.79 79.94a31.86 31.86 0 0 1 -24.73 11.74c-15.45 0-30.8-11.2-30.8-32.15 0-21.3 15.58-32.13 31.29-32.13a31.13 31.13 0 0 1 23 9.68 6 6 0 0 1 .69 7.65c-2 2.74-6.43 3.73-9.93.43a18.18 18.18 0 0 0 -13.12-5.34c-9.25 0-18.63 6.57-18.63 19.59 0 12.79 9.26 19.48 18.39 19.48a19.2 19.2 0 0 0 14.21-6.28 6.06 6.06 0 0 1 9.66 7.33z"/><path d="m685.27 79.94a31.84 31.84 0 0 1 -24.73 11.74c-15.45 0-30.8-11.2-30.8-32.15 0-21.3 15.59-32.13 31.29-32.13a31.16 31.16 0 0 1 23 9.68 6 6 0 0 1 .68 7.65c-2 2.74-6.42 3.73-9.93.43a18.18 18.18 0 0 0 -13.12-5.34c-9.25 0-18.62 6.57-18.62 19.59 0 12.79 9.25 19.48 18.38 19.48a19.2 19.2 0 0 0 14.21-6.28 6.06 6.06 0 1 1 9.66 7.33z"/><path d="m52.9 52a11.75 11.75 0 0 1 11.72-10.71 12.71 12.71 0 0 1 3.92.63c11.39-17.37-.87-29.16-2.26-30.41-12.46-12.22-35.47-16.68-65.01-3.51.08.33 8.9 37.83 48.54 43.79h.11c-1.89-.11-3.1-.09-3.1-.09a49.84 49.84 0 0 0 -28.74 9.76c-16.62 12.96-18.08 34.31-18.08 34.31.88.11 30.3 4 48.16-13.67a35.91 35.91 0 0 0 4.84-6.1s.47-.74 1.24-2a18.61 18.61 0 0 0 -.81 6.64c.39 11.57 11.58 35.43 56.35 35.5.13-.94 3.84-29.56-7.28-44.14a36.87 36.87 0 0 0 -11.9-10.92c-6.31-3.72-15.2-3.36-15.2-3.36a11.77 11.77 0 0 1 -15.52 6l-.24-.11a11.75 11.75 0 0 1 -6.77-10.61 7.6 7.6 0 0 1 .03-1z"/></g></svg>