<svg height="24" viewBox="0 0 24 24" width="24" xmlns="http://www.w3.org/2000/svg"><path d="m18.2175 7.278c-.79529 0-1.44-.64470996-1.44-1.44s.64471-1.44 1.44-1.44 1.44.64470996 1.44 1.44-.64471 1.44-1.44 1.44zm-6.2175 10.722c-3.309 0-6-2.691-6-6s2.691-6 6-6 6 2.691 6 6-2.691 6-6 6zm0-9c-1.6545 0-3 1.3455-3 3s1.3455 3 3 3 3-1.3455 3-3-1.3455-3-3-3zm6 15h-12c-3.084 0-6-2.916-6-6v-12c0-3.084 2.916-6 6-6h12c3.084 0 6 2.916 6 6v12c0 3.084-2.916 6-6 6zm-12-21c-1.4025 0-3 1.5975-3 3v12c0 1.4295 1.5705 3 3 3h12c1.4025 0 3-1.5975 3-3v-12c0-1.4025-1.5975-3-3-3z" fill="#fff"/></svg>