<?xml version="1.0" encoding="UTF-8"?>
<svg width="24px" height="24px" viewBox="0 0 24 24" version="1.1" xmlns="http://www.w3.org/2000/svg" xmlns:xlink="http://www.w3.org/1999/xlink">
    <!-- Generator: Sketch 53.2 (72643) - https://sketchapp.com -->
    <title>Instagram</title>
    <desc>Created with Sketch.</desc>
    <g id="Instagram" stroke="none" stroke-width="1" fill="none" fill-rule="evenodd">
        <path d="M18.2175,7.278 C17.42221,7.278 16.7775,6.63329004 16.7775,5.838 C16.7775,5.04270996 17.42221,4.398 18.2175,4.398 C19.01279,4.398 19.6575,5.04270996 19.6575,5.838 C19.6575,6.63329004 19.01279,7.278 18.2175,7.278 Z M12,18 C8.691,18 6,15.309 6,12 C6,8.691 8.691,6 12,6 C15.309,6 18,8.691 18,12 C18,15.309 15.309,18 12,18 Z M12,9 C10.3455,9 9,10.3455 9,12 C9,13.6545 10.3455,15 12,15 C13.6545,15 15,13.6545 15,12 C15,10.3455 13.6545,9 12,9 Z M18,24 L6,24 C2.916,24 9.05941988e-14,21.084 9.05941988e-14,18 L9.05941988e-14,6 C9.05941988e-14,2.916 2.916,5.32907052e-15 6,5.32907052e-15 L18,5.32907052e-15 C21.084,5.32907052e-15 24,2.916 24,6 L24,18 C24,21.084 21.084,24 18,24 Z M6,3 C4.5975,3 3,4.5975 3,6 L3,18 C3,19.4295 4.5705,21 6,21 L18,21 C19.4025,21 21,19.4025 21,18 L21,6 C21,4.5975 19.4025,3 18,3 L6,3 Z" id="Fill" fill="#005585" fill-rule="nonzero"></path>
    </g>
</svg>