<?xml version="1.0" encoding="UTF-8"?>
<svg width="24px" height="24px" viewBox="0 0 24 24" version="1.1" xmlns="http://www.w3.org/2000/svg" xmlns:xlink="http://www.w3.org/1999/xlink">
    <!-- Generator: Sketch 53.2 (72643) - https://sketchapp.com -->
    <title>Twitter</title>
    <desc>Created with Sketch.</desc>
    <g id="Twitter" stroke="none" stroke-width="1" fill="none" fill-rule="evenodd">
        <path d="M24,4.21538462 C23.1,4.65846154 22.2,4.80615385 21.15,4.95384615 C22.2,4.36307692 22.95,3.47692308 23.25,2.29538462 C22.35,2.88615385 21.3,3.18153846 20.1,3.47692308 C19.2,2.59076923 17.85,2 16.5,2 C13.95,2 11.7,4.21538462 11.7,6.87384615 C11.7,7.31692308 11.7,7.61230769 11.85,7.90769231 C7.8,7.76 4.05,5.84 1.65,2.88615385 C1.2,3.62461538 1.05,4.36307692 1.05,5.39692308 C1.05,7.02153846 1.95,8.49846154 3.3,9.38461538 C2.55,9.38461538 1.8,9.08923077 1.05,8.79384615 C1.05,8.79384615 1.05,8.79384615 1.05,8.79384615 C1.05,11.1569231 2.7,13.0769231 4.95,13.52 C4.5,13.6676923 4.05,13.6676923 3.6,13.6676923 C3.3,13.6676923 3,13.6676923 2.7,13.52 C3.3,15.44 5.1,16.9169231 7.35,16.9169231 C5.7,18.2461538 3.6,18.9846154 1.2,18.9846154 C0.75,18.9846154 0.45,18.9846154 0,18.9846154 C2.25,20.3138462 4.8,21.2 7.5,21.2 C16.5,21.2 21.45,13.8153846 21.45,7.46461538 C21.45,7.31692308 21.45,7.02153846 21.45,6.87384615 C22.5,6.13538462 23.4,5.24923077 24,4.21538462 Z" id="Fill" fill="#005585" fill-rule="nonzero"></path>
    </g>
</svg>