<svg height="24" viewBox="0 0 24 24" width="24" xmlns="http://www.w3.org/2000/svg"><path d="m24 4.21538462c-.9.44307692-1.8.59076923-2.85.73846153 1.05-.59076923 1.8-1.47692307 2.1-2.65846153-.9.59076923-1.95.88615384-3.15 1.18153846-.9-.88615385-2.25-1.47692308-3.6-1.47692308-2.55 0-4.8 2.21538462-4.8 4.87384615 0 .44307693 0 .73846154.15 1.03384616-4.05-.14769231-7.8-2.06769231-10.2-5.02153846-.45.73846153-.6 1.47692307-.6 2.51076923 0 1.62461538.9 3.10153846 2.25 3.9876923-.75 0-1.5-.29538461-2.25-.59076923 0 2.36307695 1.65 4.28307695 3.9 4.72615385-.45.1476923-.9.1476923-1.35.1476923-.3 0-.6 0-.9-.1476923.6 1.92 2.4 3.3969231 4.65 3.3969231-1.65 1.3292307-3.75 2.0676923-6.15 2.0676923-.45 0-.75 0-1.2 0 2.25 1.3292308 4.8 2.2153846 7.5 2.2153846 9 0 13.95-7.3846154 13.95-13.73538462 0-.1476923 0-.44307692 0-.59076923 1.05-.73846153 1.95-1.62461538 2.55-2.65846153z" fill="#fff"/></svg>