<svg height="24" viewBox="0 0 24 24" width="24" xmlns="http://www.w3.org/2000/svg"><path d="m23.7 7.27368421c-.3-1.98421053-1.2-3.35789474-3.3-3.66315789-3.3-.61052632-8.4-.61052632-8.4-.61052632s-5.1 0-8.4.61052632c-2.1.30526315-3.15 1.67894736-3.3 3.66315789-.3 1.98421053-.3 4.88421049-.3 4.88421049s0 2.9.3 4.8842106c.3 1.9842105 1.2 3.3578947 3.3 3.6631579 3.3.6105263 8.4.6105263 8.4.6105263s5.1 0 8.4-.6105263c2.1-.4578948 3-1.6789474 3.3-3.6631579.3-1.9842106.3-4.8842106.3-4.8842106s0-2.89999996-.3-4.88421049zm-14.7 9.46315789v-9.15789473l7.5 4.57894733z" fill="#fff"/></svg>