<?xml version="1.0" encoding="UTF-8"?>
<svg width="24px" height="24px" viewBox="0 0 24 24" version="1.1" xmlns="http://www.w3.org/2000/svg" xmlns:xlink="http://www.w3.org/1999/xlink">
    <!-- Generator: Sketch 53.2 (72643) - https://sketchapp.com -->
    <title>You tube</title>
    <desc>Created with Sketch.</desc>
    <g id="You-tube" stroke="none" stroke-width="1" fill="none" fill-rule="evenodd">
        <path d="M23.7,7.27368421 C23.4,5.28947368 22.5,3.91578947 20.4,3.61052632 C17.1,3 12,3 12,3 C12,3 6.9,3 3.6,3.61052632 C1.5,3.91578947 0.45,5.28947368 0.3,7.27368421 C0,9.25789474 0,12.1578947 0,12.1578947 C0,12.1578947 0,15.0578947 0.3,17.0421053 C0.6,19.0263158 1.5,20.4 3.6,20.7052632 C6.9,21.3157895 12,21.3157895 12,21.3157895 C12,21.3157895 17.1,21.3157895 20.4,20.7052632 C22.5,20.2473684 23.4,19.0263158 23.7,17.0421053 C24,15.0578947 24,12.1578947 24,12.1578947 C24,12.1578947 24,9.25789474 23.7,7.27368421 Z M9,16.7368421 L9,7.57894737 L16.5,12.1578947 L9,16.7368421 Z" id="Fill" fill="#005585" fill-rule="nonzero"></path>
    </g>
</svg>